<?xml version="1.0" encoding="UTF-8"?>
<svg xmlns="http://www.w3.org/2000/svg" xmlns:xlink="http://www.w3.org/1999/xlink" width="1224pt" height="194pt" viewBox="0 0 1224 194">
<defs>
<g>
<g id="glyph-0-0">
<path d="M 10.0625 -7.640625 C 9.625 -10.078125 8.21875 -11.265625 5.796875 -11.265625 C 4.296875 -11.265625 3.09375 -10.796875 2.28125 -9.875 C 1.28125 -8.78125 0.734375 -7.203125 0.734375 -5.40625 C 0.734375 -3.59375 1.296875 -2.015625 2.328125 -0.9375 C 3.1875 -0.0625 4.28125 0.34375 5.734375 0.34375 C 8.4375 0.34375 9.953125 -1.109375 10.296875 -4.046875 L 8.828125 -4.046875 C 8.71875 -3.28125 8.5625 -2.765625 8.328125 -2.328125 C 7.875 -1.40625 6.9375 -0.890625 5.75 -0.890625 C 3.546875 -0.890625 2.140625 -2.65625 2.140625 -5.421875 C 2.140625 -8.265625 3.46875 -10.015625 5.625 -10.015625 C 6.515625 -10.015625 7.359375 -9.765625 7.8125 -9.3125 C 8.21875 -8.9375 8.453125 -8.484375 8.625 -7.640625 Z M 10.0625 -7.640625 "/>
</g>
<g id="glyph-0-1">
<path d="M 7.375 -10.59375 L 6.203125 -10.59375 L 5.671875 -7.609375 L 3.765625 -7.609375 L 4.3125 -10.59375 L 3.15625 -10.59375 L 2.609375 -7.609375 L 0.78125 -7.609375 L 0.78125 -6.578125 L 2.421875 -6.578125 L 1.953125 -3.9375 L 0.21875 -3.9375 L 0.21875 -2.90625 L 1.75 -2.90625 L 1.171875 0.296875 L 2.328125 0.296875 L 2.921875 -2.90625 L 4.796875 -2.90625 L 4.21875 0.296875 L 5.375 0.296875 L 5.96875 -2.90625 L 7.75 -2.90625 L 7.75 -3.9375 L 6.15625 -3.9375 L 6.625 -6.578125 L 8.234375 -6.578125 L 8.234375 -7.609375 L 6.828125 -7.609375 Z M 5.46875 -6.578125 L 5 -3.9375 L 3.09375 -3.9375 L 3.59375 -6.578125 Z M 5.46875 -6.578125 "/>
</g>
<g id="glyph-0-2">
</g>
<g id="glyph-0-3">
<path d="M 3.59375 -11.078125 C 2.0625 -9.09375 1.109375 -6.328125 1.109375 -3.9375 C 1.109375 -1.53125 2.0625 1.234375 3.59375 3.21875 L 4.421875 3.21875 C 3.09375 1.046875 2.34375 -1.5 2.34375 -3.9375 C 2.34375 -6.359375 3.09375 -8.921875 4.421875 -11.078125 Z M 3.59375 -11.078125 "/>
</g>
<g id="glyph-0-4">
<path d="M 7.6875 -1.328125 L 2.015625 -1.328125 C 2.15625 -2.234375 2.640625 -2.8125 3.96875 -3.625 L 5.484375 -4.46875 C 7 -5.3125 7.765625 -6.4375 7.765625 -7.78125 C 7.765625 -8.703125 7.40625 -9.546875 6.765625 -10.140625 C 6.125 -10.71875 5.34375 -10.984375 4.3125 -10.984375 C 2.953125 -10.984375 1.9375 -10.5 1.34375 -9.5625 C 0.953125 -8.984375 0.796875 -8.296875 0.765625 -7.1875 L 2.09375 -7.1875 C 2.140625 -7.9375 2.234375 -8.375 2.421875 -8.734375 C 2.765625 -9.40625 3.46875 -9.828125 4.265625 -9.828125 C 5.484375 -9.828125 6.40625 -8.9375 6.40625 -7.75 C 6.40625 -6.875 5.90625 -6.109375 4.9375 -5.5625 L 3.546875 -4.75 C 1.296875 -3.453125 0.640625 -2.421875 0.515625 -0.015625 L 7.6875 -0.015625 Z M 7.6875 -1.328125 "/>
</g>
<g id="glyph-0-5">
<path d="M 7.578125 -8.140625 C 7.3125 -9.921875 6.15625 -10.984375 4.515625 -10.984375 C 3.328125 -10.984375 2.265625 -10.421875 1.625 -9.421875 C 0.9375 -8.34375 0.65625 -7.015625 0.65625 -5.015625 C 0.65625 -3.15625 0.90625 -1.984375 1.5625 -1.015625 C 2.140625 -0.125 3.09375 0.34375 4.265625 0.34375 C 6.328125 0.34375 7.796875 -1.1875 7.796875 -3.328125 C 7.796875 -5.34375 6.4375 -6.78125 4.5 -6.78125 C 3.4375 -6.78125 2.59375 -6.390625 2.015625 -5.578125 C 2.03125 -8.296875 2.890625 -9.8125 4.421875 -9.8125 C 5.359375 -9.8125 6.015625 -9.203125 6.234375 -8.140625 Z M 4.328125 -5.59375 C 5.625 -5.59375 6.4375 -4.6875 6.4375 -3.21875 C 6.4375 -1.84375 5.515625 -0.84375 4.28125 -0.84375 C 3.046875 -0.84375 2.09375 -1.890625 2.09375 -3.28125 C 2.09375 -4.65625 3.015625 -5.59375 4.328125 -5.59375 Z M 4.328125 -5.59375 "/>
</g>
<g id="glyph-0-6">
<path d="M 2.90625 -1.578125 L 1.328125 -1.578125 L 1.328125 0 L 2.90625 0 Z M 2.90625 -1.578125 "/>
</g>
<g id="glyph-0-7">
<path d="M 3.359375 -5.0625 L 4.09375 -5.0625 C 5.546875 -5.0625 6.328125 -4.375 6.328125 -3.0625 C 6.328125 -1.671875 5.484375 -0.84375 4.109375 -0.84375 C 2.625 -0.84375 1.921875 -1.578125 1.828125 -3.1875 L 0.484375 -3.1875 C 0.546875 -2.3125 0.703125 -1.734375 0.953125 -1.25 C 1.515625 -0.1875 2.5625 0.34375 4.046875 0.34375 C 6.265625 0.34375 7.6875 -0.984375 7.6875 -3.078125 C 7.6875 -4.46875 7.15625 -5.234375 5.875 -5.6875 C 6.875 -6.09375 7.375 -6.859375 7.375 -7.96875 C 7.375 -9.859375 6.140625 -10.984375 4.09375 -10.984375 C 1.921875 -10.984375 0.765625 -9.78125 0.71875 -7.453125 L 2.046875 -7.453125 C 2.0625 -8.125 2.125 -8.5 2.296875 -8.828125 C 2.59375 -9.453125 3.265625 -9.828125 4.109375 -9.828125 C 5.296875 -9.828125 6 -9.109375 6 -7.921875 C 6 -7.140625 5.734375 -6.671875 5.140625 -6.421875 C 4.78125 -6.265625 4.28125 -6.203125 3.359375 -6.1875 Z M 3.359375 -5.0625 "/>
</g>
<g id="glyph-0-8">
<path d="M 3.03125 -10.421875 C 1.59375 -10.421875 0.4375 -9.25 0.4375 -7.8125 C 0.4375 -6.390625 1.59375 -5.21875 3.046875 -5.21875 C 4.453125 -5.21875 5.625 -6.390625 5.625 -7.78125 C 5.625 -9.265625 4.484375 -10.421875 3.03125 -10.421875 Z M 3.03125 -9.34375 C 3.890625 -9.34375 4.578125 -8.671875 4.578125 -7.796875 C 4.578125 -6.96875 3.875 -6.28125 3.046875 -6.28125 C 2.1875 -6.28125 1.484375 -6.96875 1.484375 -7.8125 C 1.484375 -8.671875 2.171875 -9.34375 3.03125 -9.34375 Z M 9.265625 -10.78125 L 3.25 0.296875 L 4.25 0.296875 L 10.265625 -10.78125 Z M 10.453125 -4.890625 C 9.03125 -4.890625 7.875 -3.734375 7.875 -2.3125 C 7.875 -0.859375 9.03125 0.28125 10.46875 0.28125 C 11.890625 0.28125 13.0625 -0.859375 13.0625 -2.28125 C 13.0625 -3.734375 11.921875 -4.890625 10.453125 -4.890625 Z M 10.453125 -3.828125 C 11.328125 -3.828125 12.015625 -3.140625 12.015625 -2.28125 C 12.015625 -1.453125 11.3125 -0.78125 10.46875 -0.78125 C 9.609375 -0.78125 8.921875 -1.453125 8.921875 -2.3125 C 8.921875 -3.140625 9.609375 -3.828125 10.453125 -3.828125 Z M 10.453125 -3.828125 "/>
</g>
<g id="glyph-0-9">
<path d="M 1.40625 3.21875 C 2.9375 1.234375 3.890625 -1.53125 3.890625 -3.921875 C 3.890625 -6.328125 2.9375 -9.09375 1.40625 -11.078125 L 0.578125 -11.078125 C 1.921875 -8.90625 2.65625 -6.359375 2.65625 -3.921875 C 2.65625 -1.5 1.921875 1.0625 0.578125 3.21875 Z M 1.40625 3.21875 "/>
</g>
<g id="glyph-0-10">
<path d="M 2.796875 -4.703125 L 6.28125 -4.703125 C 7.140625 -4.703125 7.828125 -4.953125 8.421875 -5.484375 C 9.09375 -6.09375 9.375 -6.8125 9.375 -7.828125 C 9.375 -9.90625 8.15625 -11.078125 5.953125 -11.078125 L 1.390625 -11.078125 L 1.390625 0 L 2.796875 0 Z M 2.796875 -5.9375 L 2.796875 -9.84375 L 5.75 -9.84375 C 7.09375 -9.84375 7.90625 -9.109375 7.90625 -7.890625 C 7.90625 -6.671875 7.09375 -5.9375 5.75 -5.9375 Z M 2.796875 -5.9375 "/>
</g>
<g id="glyph-0-11">
<path d="M 5.90625 -7.96875 L 3.6875 -1.765625 L 1.65625 -7.96875 L 0.296875 -7.96875 L 3 0.03125 L 2.515625 1.296875 C 2.296875 1.859375 2.015625 2.0625 1.484375 2.0625 C 1.28125 2.0625 1.09375 2.03125 0.828125 1.96875 L 0.828125 3.109375 C 1.078125 3.25 1.34375 3.3125 1.671875 3.3125 C 2.078125 3.3125 2.53125 3.171875 2.859375 2.9375 C 3.25 2.640625 3.484375 2.3125 3.71875 1.671875 L 7.265625 -7.96875 Z M 5.90625 -7.96875 "/>
</g>
<g id="glyph-0-12">
<path d="M 3.859375 -7.96875 L 2.546875 -7.96875 L 2.546875 -10.15625 L 1.296875 -10.15625 L 1.296875 -7.96875 L 0.21875 -7.96875 L 0.21875 -6.9375 L 1.296875 -6.9375 L 1.296875 -0.90625 C 1.296875 -0.09375 1.84375 0.34375 2.828125 0.34375 C 3.15625 0.34375 3.4375 0.3125 3.859375 0.25 L 3.859375 -0.828125 C 3.671875 -0.78125 3.515625 -0.765625 3.25 -0.765625 C 2.703125 -0.765625 2.546875 -0.90625 2.546875 -1.46875 L 2.546875 -6.9375 L 3.859375 -6.9375 Z M 3.859375 -7.96875 "/>
</g>
<g id="glyph-0-13">
<path d="M 1.0625 -11.078125 L 1.0625 0 L 2.328125 0 L 2.328125 -4.390625 C 2.328125 -6.015625 3.171875 -7.078125 4.484375 -7.078125 C 4.90625 -7.078125 5.3125 -6.96875 5.609375 -6.734375 C 5.96875 -6.46875 6.125 -6.078125 6.125 -5.515625 L 6.125 0 L 7.390625 0 L 7.390625 -6.015625 C 7.390625 -7.359375 6.4375 -8.1875 4.875 -8.1875 C 3.75 -8.1875 3.078125 -7.84375 2.328125 -6.875 L 2.328125 -11.078125 Z M 1.0625 -11.078125 "/>
</g>
<g id="glyph-0-14">
<path d="M 4.140625 -8.1875 C 1.890625 -8.1875 0.546875 -6.59375 0.546875 -3.921875 C 0.546875 -1.234375 1.890625 0.34375 4.15625 0.34375 C 6.40625 0.34375 7.75 -1.25 7.75 -3.859375 C 7.75 -6.625 6.453125 -8.1875 4.140625 -8.1875 Z M 4.15625 -7.03125 C 5.578125 -7.03125 6.4375 -5.859375 6.4375 -3.875 C 6.4375 -1.984375 5.546875 -0.828125 4.15625 -0.828125 C 2.734375 -0.828125 1.875 -1.984375 1.875 -3.921875 C 1.875 -5.859375 2.734375 -7.03125 4.15625 -7.03125 Z M 4.15625 -7.03125 "/>
</g>
<g id="glyph-0-15">
<path d="M 1.0625 -7.96875 L 1.0625 0 L 2.34375 0 L 2.34375 -4.390625 C 2.34375 -6.015625 3.1875 -7.078125 4.5 -7.078125 C 5.5 -7.078125 6.140625 -6.484375 6.140625 -5.515625 L 6.140625 0 L 7.40625 0 L 7.40625 -6.015625 C 7.40625 -7.34375 6.421875 -8.1875 4.875 -8.1875 C 3.6875 -8.1875 2.9375 -7.734375 2.234375 -6.625 L 2.234375 -7.96875 Z M 1.0625 -7.96875 "/>
</g>
<g id="glyph-0-16">
<path d="M 3.9375 -7.828125 L 3.9375 0 L 5.28125 0 L 5.28125 -10.984375 L 4.390625 -10.984375 C 3.921875 -9.296875 3.625 -9.078125 1.546875 -8.796875 L 1.546875 -7.828125 Z M 3.9375 -7.828125 "/>
</g>
<g id="glyph-0-17">
<path d="M 5.9375 -5.796875 C 7.0625 -6.484375 7.421875 -7.03125 7.421875 -8.0625 C 7.421875 -9.796875 6.09375 -10.984375 4.1875 -10.984375 C 2.28125 -10.984375 0.9375 -9.796875 0.9375 -8.078125 C 0.9375 -7.03125 1.296875 -6.484375 2.40625 -5.796875 C 1.171875 -5.171875 0.5625 -4.265625 0.5625 -3.0625 C 0.5625 -1.046875 2.03125 0.34375 4.1875 0.34375 C 6.3125 0.34375 7.796875 -1.046875 7.796875 -3.0625 C 7.796875 -4.265625 7.1875 -5.171875 5.9375 -5.796875 Z M 4.1875 -9.8125 C 5.328125 -9.8125 6.046875 -9.125 6.046875 -8.03125 C 6.046875 -7 5.3125 -6.3125 4.1875 -6.3125 C 3.046875 -6.3125 2.3125 -7 2.3125 -8.0625 C 2.3125 -9.125 3.046875 -9.8125 4.1875 -9.8125 Z M 4.1875 -5.1875 C 5.515625 -5.1875 6.4375 -4.296875 6.4375 -3.03125 C 6.4375 -1.703125 5.53125 -0.84375 4.15625 -0.84375 C 2.84375 -0.84375 1.9375 -1.734375 1.9375 -3.015625 C 1.9375 -4.3125 2.828125 -5.1875 4.1875 -5.1875 Z M 4.1875 -5.1875 "/>
</g>
<g id="glyph-0-18">
<path d="M 5.0625 -11.078125 L 5.0625 -3.28125 C 5.0625 -2.40625 4.96875 -1.90625 4.71875 -1.515625 C 4.4375 -1.09375 3.921875 -0.84375 3.359375 -0.84375 C 2.296875 -0.84375 1.703125 -1.546875 1.703125 -2.84375 L 1.703125 -3.5625 L 0.265625 -3.5625 L 0.265625 -2.578125 C 0.265625 -0.796875 1.4375 0.34375 3.34375 0.34375 C 5.28125 0.34375 6.484375 -0.84375 6.484375 -2.765625 L 6.484375 -11.078125 Z M 5.0625 -11.078125 "/>
</g>
<g id="glyph-0-19">
<path d="M 8.140625 -0.75 C 8 -0.71875 7.9375 -0.71875 7.859375 -0.71875 C 7.421875 -0.71875 7.171875 -0.9375 7.171875 -1.34375 L 7.171875 -6.015625 C 7.171875 -7.4375 6.140625 -8.1875 4.1875 -8.1875 C 3.015625 -8.1875 2.078125 -7.859375 1.53125 -7.265625 C 1.171875 -6.859375 1.015625 -6.40625 0.984375 -5.609375 L 2.265625 -5.609375 C 2.375 -6.578125 2.953125 -7.03125 4.140625 -7.03125 C 5.296875 -7.03125 5.90625 -6.59375 5.90625 -5.84375 L 5.90625 -5.5 C 5.90625 -4.953125 5.625 -4.765625 4.59375 -4.625 C 2.796875 -4.390625 2.53125 -4.328125 2.03125 -4.140625 C 1.109375 -3.734375 0.640625 -3.046875 0.640625 -2 C 0.640625 -0.5625 1.640625 0.34375 3.25 0.34375 C 4.25 0.34375 5.0625 0 5.953125 -0.828125 C 6.046875 0 6.453125 0.34375 7.265625 0.34375 C 7.546875 0.34375 7.703125 0.3125 8.140625 0.21875 Z M 5.90625 -2.515625 C 5.90625 -2.078125 5.796875 -1.828125 5.40625 -1.46875 C 4.890625 -1 4.265625 -0.765625 3.53125 -0.765625 C 2.53125 -0.765625 1.96875 -1.234375 1.96875 -2.03125 C 1.96875 -2.875 2.515625 -3.296875 3.875 -3.5 C 5.234375 -3.671875 5.484375 -3.734375 5.90625 -3.9375 Z M 5.90625 -2.515625 "/>
</g>
<g id="glyph-0-20">
<path d="M 4.328125 0 L 7.390625 -7.96875 L 5.953125 -7.96875 L 3.703125 -1.5 L 1.578125 -7.96875 L 0.15625 -7.96875 L 2.953125 0 Z M 4.328125 0 "/>
</g>
<g id="glyph-0-21">
<path d="M 7.90625 -10.78125 L 0.703125 -10.78125 L 0.703125 -9.453125 L 6.515625 -9.453125 C 3.953125 -5.796875 2.90625 -3.546875 2.09375 0 L 3.53125 0 C 4.125 -3.453125 5.46875 -6.421875 7.90625 -9.65625 Z M 7.90625 -10.78125 "/>
</g>
<g id="glyph-0-22">
<path d="M 5.953125 0 L 9.8125 -11.078125 L 8.296875 -11.078125 L 5.234375 -1.703125 L 1.96875 -11.078125 L 0.453125 -11.078125 L 4.4375 0 Z M 5.953125 0 "/>
</g>
<g id="glyph-0-23">
<path d="M 1.203125 0 L 6.203125 0 C 7.25 0 8.03125 -0.28125 8.625 -0.921875 C 9.171875 -1.5 9.46875 -2.296875 9.46875 -3.15625 C 9.46875 -4.5 8.859375 -5.3125 7.453125 -5.859375 C 8.46875 -6.328125 8.984375 -7.125 8.984375 -8.265625 C 8.984375 -9.09375 8.6875 -9.796875 8.109375 -10.3125 C 7.515625 -10.84375 6.765625 -11.078125 5.703125 -11.078125 L 1.203125 -11.078125 Z M 2.609375 -6.3125 L 2.609375 -9.84375 L 5.34375 -9.84375 C 6.140625 -9.84375 6.578125 -9.734375 6.96875 -9.4375 C 7.359375 -9.140625 7.578125 -8.6875 7.578125 -8.078125 C 7.578125 -7.46875 7.359375 -7.015625 6.96875 -6.703125 C 6.578125 -6.421875 6.140625 -6.3125 5.34375 -6.3125 Z M 2.609375 -1.25 L 2.609375 -5.0625 L 6.0625 -5.0625 C 7.3125 -5.0625 8.0625 -4.34375 8.0625 -3.140625 C 8.0625 -1.96875 7.3125 -1.25 6.0625 -1.25 Z M 2.609375 -1.25 "/>
</g>
<g id="glyph-0-24">
<path d="M 7.203125 -3.328125 L 8.34375 0 L 9.921875 0 L 6.03125 -11.078125 L 4.21875 -11.078125 L 0.265625 0 L 1.765625 0 L 2.9375 -3.328125 Z M 6.8125 -4.515625 L 3.28125 -4.515625 L 5.109375 -9.5625 Z M 6.8125 -4.515625 "/>
</g>
<g id="glyph-0-25">
<path d="M 4.1875 -10.984375 C 3.171875 -10.984375 2.265625 -10.53125 1.703125 -9.796875 C 1 -8.8125 0.65625 -7.359375 0.65625 -5.328125 C 0.65625 -1.609375 1.875 0.34375 4.1875 0.34375 C 6.46875 0.34375 7.703125 -1.609375 7.703125 -5.234375 C 7.703125 -7.359375 7.375 -8.78125 6.65625 -9.796875 C 6.09375 -10.546875 5.203125 -10.984375 4.1875 -10.984375 Z M 4.1875 -9.8125 C 5.625 -9.8125 6.34375 -8.328125 6.34375 -5.34375 C 6.34375 -2.21875 5.640625 -0.765625 4.15625 -0.765625 C 2.734375 -0.765625 2.015625 -2.28125 2.015625 -5.3125 C 2.015625 -8.328125 2.734375 -9.8125 4.1875 -9.8125 Z M 4.1875 -9.8125 "/>
</g>
<g id="glyph-0-26">
<path d="M 7.234375 -10.78125 L 1.671875 -10.78125 L 0.859375 -4.90625 L 2.09375 -4.90625 C 2.71875 -5.65625 3.234375 -5.90625 4.09375 -5.90625 C 5.53125 -5.90625 6.4375 -4.921875 6.4375 -3.328125 C 6.4375 -1.78125 5.53125 -0.84375 4.078125 -0.84375 C 2.90625 -0.84375 2.1875 -1.421875 1.875 -2.640625 L 0.53125 -2.640625 C 0.71875 -1.765625 0.859375 -1.34375 1.1875 -0.9375 C 1.796875 -0.125 2.890625 0.34375 4.109375 0.34375 C 6.28125 0.34375 7.796875 -1.234375 7.796875 -3.515625 C 7.796875 -5.640625 6.390625 -7.09375 4.3125 -7.09375 C 3.5625 -7.09375 2.953125 -6.90625 2.328125 -6.453125 L 2.75 -9.453125 L 7.234375 -9.453125 Z M 7.234375 -10.78125 "/>
</g>
<g id="glyph-0-27">
<path d="M 8.125 -4.0625 L 4.96875 -4.0625 L 4.96875 -7.203125 L 3.90625 -7.203125 L 3.90625 -4.0625 L 0.765625 -4.0625 L 0.765625 -3 L 3.90625 -3 L 3.90625 0.15625 L 4.96875 0.15625 L 4.96875 -3 L 8.125 -3 Z M 8.125 -4.0625 "/>
</g>
<g id="glyph-0-28">
<path d="M 9.0625 -7.828125 C 9.0625 -8.59375 9.015625 -8.796875 8.765625 -9.3125 C 8.171875 -10.59375 6.875 -11.265625 5 -11.265625 C 2.5625 -11.265625 1.0625 -10.015625 1.0625 -8.015625 C 1.0625 -6.65625 1.78125 -5.8125 3.234375 -5.421875 L 5.984375 -4.703125 C 7.40625 -4.328125 8.03125 -3.765625 8.03125 -2.90625 C 8.03125 -2.3125 7.703125 -1.703125 7.234375 -1.375 C 6.796875 -1.046875 6.09375 -0.890625 5.203125 -0.890625 C 3.984375 -0.890625 3.171875 -1.1875 2.640625 -1.828125 C 2.234375 -2.3125 2.046875 -2.84375 2.0625 -3.53125 L 0.734375 -3.53125 C 0.75 -2.515625 0.9375 -1.84375 1.390625 -1.234375 C 2.140625 -0.1875 3.421875 0.34375 5.109375 0.34375 C 6.4375 0.34375 7.515625 0.046875 8.21875 -0.5 C 8.96875 -1.09375 9.4375 -2.078125 9.4375 -3.046875 C 9.4375 -4.40625 8.59375 -5.40625 7.078125 -5.828125 L 4.296875 -6.5625 C 2.96875 -6.9375 2.484375 -7.359375 2.484375 -8.203125 C 2.484375 -9.328125 3.46875 -10.078125 4.953125 -10.078125 C 6.71875 -10.078125 7.703125 -9.296875 7.71875 -7.828125 Z M 9.0625 -7.828125 "/>
</g>
<g id="glyph-0-29">
<path d="M 11.140625 0.015625 L 9.71875 -1.15625 C 10.765625 -2.3125 11.28125 -3.71875 11.28125 -5.484375 C 11.28125 -8.9375 9.125 -11.265625 5.921875 -11.265625 C 2.71875 -11.265625 0.578125 -8.9375 0.578125 -5.453125 C 0.578125 -1.984375 2.71875 0.34375 5.921875 0.34375 C 7.046875 0.34375 7.9375 0.109375 8.828125 -0.421875 L 10.421875 0.890625 Z M 7.3125 -3.109375 L 6.609375 -2.265625 L 7.734375 -1.328125 C 7.078125 -1 6.578125 -0.890625 5.90625 -0.890625 C 3.5625 -0.890625 1.984375 -2.71875 1.984375 -5.453125 C 1.984375 -8.1875 3.5625 -10.015625 5.921875 -10.015625 C 8.28125 -10.015625 9.859375 -8.1875 9.859375 -5.46875 C 9.859375 -4.03125 9.484375 -2.9375 8.671875 -2 Z M 7.3125 -3.109375 "/>
</g>
<g id="glyph-0-30">
<path d="M 2.625 -11.078125 L 1.21875 -11.078125 L 1.21875 0 L 8.109375 0 L 8.109375 -1.25 L 2.625 -1.25 Z M 2.625 -11.078125 "/>
</g>
<g id="glyph-0-31">
<path d="M 8.375 -5.046875 L 8.375 0 L 9.796875 0 L 9.796875 -11.078125 L 8.375 -11.078125 L 8.375 -6.296875 L 2.671875 -6.296875 L 2.671875 -11.078125 L 1.265625 -11.078125 L 1.265625 0 L 2.671875 0 L 2.671875 -5.046875 Z M 8.375 -5.046875 "/>
</g>
<g id="glyph-0-32">
<path d="M 5.375 -9.84375 L 9.015625 -9.84375 L 9.015625 -11.078125 L 0.3125 -11.078125 L 0.3125 -9.84375 L 3.96875 -9.84375 L 3.96875 0 L 5.375 0 Z M 5.375 -9.84375 "/>
</g>
<g id="glyph-0-33">
<path d="M 7.109375 0 L 10.234375 -9.296875 L 10.234375 0 L 11.5625 0 L 11.5625 -11.078125 L 9.609375 -11.078125 L 6.390625 -1.421875 L 3.09375 -11.078125 L 1.140625 -11.078125 L 1.140625 0 L 2.484375 0 L 2.484375 -9.296875 L 5.625 0 Z M 7.109375 0 "/>
</g>
<g id="glyph-0-34">
<path d="M 2.828125 -4.78125 L 6.484375 -4.78125 C 7.734375 -4.78125 8.296875 -4.171875 8.296875 -2.796875 L 8.28125 -1.8125 C 8.28125 -1.125 8.40625 -0.453125 8.609375 0 L 10.328125 0 L 10.328125 -0.34375 C 9.796875 -0.71875 9.6875 -1.109375 9.65625 -2.578125 C 9.640625 -4.40625 9.34375 -4.953125 8.15625 -5.46875 C 9.390625 -6.09375 9.890625 -6.84375 9.890625 -8.125 C 9.890625 -10.03125 8.71875 -11.078125 6.515625 -11.078125 L 1.40625 -11.078125 L 1.40625 0 L 2.828125 0 Z M 2.828125 -6.015625 L 2.828125 -9.84375 L 6.25 -9.84375 C 7.046875 -9.84375 7.5 -9.71875 7.84375 -9.40625 C 8.21875 -9.09375 8.421875 -8.59375 8.421875 -7.9375 C 8.421875 -6.609375 7.75 -6.015625 6.25 -6.015625 Z M 2.828125 -6.015625 "/>
</g>
<g id="glyph-0-35">
<path d="M 7.328125 0 L 7.328125 -7.96875 L 6.0625 -7.96875 L 6.0625 -3.453125 C 6.0625 -1.828125 5.21875 -0.765625 3.890625 -0.765625 C 2.890625 -0.765625 2.25 -1.375 2.25 -2.328125 L 2.25 -7.96875 L 0.984375 -7.96875 L 0.984375 -1.828125 C 0.984375 -0.5 1.96875 0.34375 3.53125 0.34375 C 4.703125 0.34375 5.4375 -0.0625 6.1875 -1.109375 L 6.1875 0 Z M 7.328125 0 "/>
</g>
<g id="glyph-0-36">
<path d="M 0.828125 -11.078125 L 0.828125 0 L 1.96875 0 L 1.96875 -1.015625 C 2.5625 -0.09375 3.375 0.34375 4.484375 0.34375 C 6.578125 0.34375 7.953125 -1.375 7.953125 -4.015625 C 7.953125 -6.59375 6.65625 -8.1875 4.546875 -8.1875 C 3.453125 -8.1875 2.671875 -7.78125 2.078125 -6.890625 L 2.078125 -11.078125 Z M 4.296875 -7.015625 C 5.71875 -7.015625 6.625 -5.78125 6.625 -3.875 C 6.625 -2.0625 5.6875 -0.84375 4.296875 -0.84375 C 2.953125 -0.84375 2.078125 -2.046875 2.078125 -3.921875 C 2.078125 -5.796875 2.953125 -7.015625 4.296875 -7.015625 Z M 4.296875 -7.015625 "/>
</g>
<g id="glyph-0-37">
<path d="M 10.78125 -5.859375 L 6.15625 -5.859375 L 6.15625 -4.609375 L 9.53125 -4.609375 L 9.53125 -4.296875 C 9.53125 -2.328125 8.078125 -0.890625 6.046875 -0.890625 C 4.921875 -0.890625 3.90625 -1.3125 3.25 -2.015625 C 2.53125 -2.8125 2.078125 -4.140625 2.078125 -5.5 C 2.078125 -8.21875 3.640625 -10.015625 5.96875 -10.015625 C 7.65625 -10.015625 8.875 -9.15625 9.1875 -7.71875 L 10.625 -7.71875 C 10.234375 -9.96875 8.53125 -11.265625 5.984375 -11.265625 C 4.640625 -11.265625 3.546875 -10.921875 2.671875 -10.203125 C 1.390625 -9.140625 0.671875 -7.421875 0.671875 -5.421875 C 0.671875 -2.015625 2.75 0.34375 5.75 0.34375 C 7.25 0.34375 8.4375 -0.21875 9.53125 -1.40625 L 9.875 0.0625 L 10.78125 0.0625 Z M 10.78125 -5.859375 "/>
</g>
<g id="glyph-0-38">
<path d="M 7.796875 -3.5625 C 7.796875 -4.78125 7.703125 -5.5 7.484375 -6.09375 C 6.96875 -7.40625 5.75 -8.1875 4.25 -8.1875 C 2.03125 -8.1875 0.609375 -6.5 0.609375 -3.875 C 0.609375 -1.25 1.96875 0.34375 4.21875 0.34375 C 6.046875 0.34375 7.3125 -0.6875 7.625 -2.421875 L 6.359375 -2.421875 C 6 -1.375 5.296875 -0.828125 4.265625 -0.828125 C 3.46875 -0.828125 2.78125 -1.1875 2.359375 -1.859375 C 2.046875 -2.3125 1.953125 -2.765625 1.9375 -3.5625 Z M 1.96875 -4.59375 C 2.0625 -6.0625 2.96875 -7.03125 4.234375 -7.03125 C 5.53125 -7.03125 6.4375 -6.015625 6.4375 -4.59375 Z M 1.96875 -4.59375 "/>
</g>
<g id="glyph-0-39">
<path d="M 2.3125 -11.078125 L 1.03125 -11.078125 L 1.03125 0 L 2.3125 0 Z M 2.3125 -11.078125 "/>
</g>
<g id="glyph-0-40">
<path d="M 1.046875 -7.96875 L 1.046875 0 L 2.328125 0 L 2.328125 -4.140625 C 2.34375 -6.046875 3.125 -6.90625 4.875 -6.859375 L 4.875 -8.15625 C 4.671875 -8.171875 4.546875 -8.1875 4.390625 -8.1875 C 3.578125 -8.1875 2.953125 -7.703125 2.21875 -6.515625 L 2.21875 -7.96875 Z M 1.046875 -7.96875 "/>
</g>
<g id="glyph-0-41">
<path d="M 2.28125 -7.96875 L 1.015625 -7.96875 L 1.015625 0 L 2.28125 0 Z M 2.28125 -11.078125 L 1 -11.078125 L 1 -9.484375 L 2.28125 -9.484375 Z M 2.28125 -11.078125 "/>
</g>
<g id="glyph-0-42">
<path d="M 6.65625 -5.75 C 6.640625 -7.3125 5.609375 -8.1875 3.765625 -8.1875 C 1.921875 -8.1875 0.71875 -7.234375 0.71875 -5.765625 C 0.71875 -4.515625 1.359375 -3.921875 3.234375 -3.46875 L 4.421875 -3.171875 C 5.3125 -2.96875 5.65625 -2.640625 5.65625 -2.078125 C 5.65625 -1.328125 4.90625 -0.828125 3.796875 -0.828125 C 3.109375 -0.828125 2.53125 -1.015625 2.21875 -1.359375 C 2.015625 -1.578125 1.9375 -1.8125 1.859375 -2.375 L 0.515625 -2.375 C 0.578125 -0.53125 1.609375 0.34375 3.6875 0.34375 C 5.703125 0.34375 6.984375 -0.640625 6.984375 -2.171875 C 6.984375 -3.359375 6.3125 -4.015625 4.734375 -4.390625 L 3.515625 -4.6875 C 2.484375 -4.921875 2.03125 -5.265625 2.03125 -5.828125 C 2.03125 -6.5625 2.6875 -7.03125 3.71875 -7.03125 C 4.75 -7.03125 5.296875 -6.578125 5.328125 -5.75 Z M 6.65625 -5.75 "/>
</g>
<g id="glyph-0-43">
<path d="M 7.15625 -5.296875 C 7.09375 -6.0625 6.9375 -6.5625 6.625 -7.015625 C 6.078125 -7.75 5.125 -8.1875 4.015625 -8.1875 C 1.859375 -8.1875 0.46875 -6.484375 0.46875 -3.84375 C 0.46875 -1.28125 1.84375 0.34375 4 0.34375 C 5.90625 0.34375 7.09375 -0.796875 7.25 -2.734375 L 5.96875 -2.734375 C 5.765625 -1.453125 5.109375 -0.828125 4.03125 -0.828125 C 2.625 -0.828125 1.796875 -1.96875 1.796875 -3.84375 C 1.796875 -5.84375 2.609375 -7.03125 4 -7.03125 C 5.0625 -7.03125 5.734375 -6.40625 5.890625 -5.296875 Z M 7.15625 -5.296875 "/>
</g>
<g id="glyph-0-44">
<path d="M 2.140625 -11.078125 L 0.875 -11.078125 L 0.875 0 L 2.140625 0 L 2.140625 -3.09375 L 3.375 -4.3125 L 6.0625 0 L 7.625 0 L 4.375 -5.21875 L 7.140625 -7.96875 L 5.515625 -7.96875 L 2.140625 -4.59375 Z M 2.140625 -11.078125 "/>
</g>
<g id="glyph-0-45">
<path d="M 3.828125 -7.96875 L 2.515625 -7.96875 L 2.515625 -9.21875 C 2.515625 -9.75 2.796875 -10.015625 3.390625 -10.015625 C 3.5 -10.015625 3.546875 -10.015625 3.828125 -10 L 3.828125 -11.046875 C 3.546875 -11.109375 3.375 -11.125 3.109375 -11.125 C 1.953125 -11.125 1.25 -10.453125 1.25 -9.3125 L 1.25 -7.96875 L 0.1875 -7.96875 L 0.1875 -6.9375 L 1.25 -6.9375 L 1.25 0 L 2.515625 0 L 2.515625 -6.9375 L 3.828125 -6.9375 Z M 6.625 -7.96875 L 5.359375 -7.96875 L 5.359375 0 L 6.625 0 Z M 6.625 -11.078125 L 5.359375 -11.078125 L 5.359375 -9.484375 L 6.625 -9.484375 Z M 6.625 -11.078125 "/>
</g>
</g>
<clipPath id="clip-0">
<path clip-rule="nonzero" d="M 23.015625 29.886719 L 1209.058594 29.886719 L 1209.058594 70.207031 L 23.015625 70.207031 Z M 23.015625 29.886719 "/>
</clipPath>
<clipPath id="clip-1">
<path clip-rule="nonzero" d="M 896 41 L 1209.058594 41 L 1209.058594 59 L 896 59 Z M 896 41 "/>
</clipPath>
<clipPath id="clip-2">
<path clip-rule="nonzero" d="M 23.015625 41 L 25 41 L 25 59 L 23.015625 59 Z M 23.015625 41 "/>
</clipPath>
<clipPath id="clip-3">
<path clip-rule="nonzero" d="M 23.015625 41 L 24 41 L 24 59 L 23.015625 59 Z M 23.015625 41 "/>
</clipPath>
</defs>
<rect x="-122.4" y="-19.4" width="1468.8" height="232.8" fill="rgb(100%, 100%, 100%)" fill-opacity="1"/>
<rect x="-122.4" y="-19.4" width="1468.8" height="232.8" fill="rgb(5.098039%, 6.666667%, 9.019608%)" fill-opacity="1"/>
<g clip-path="url(#clip-0)">
<path fill-rule="nonzero" fill="rgb(5.098039%, 6.666667%, 9.019608%)" fill-opacity="1" d="M 23.015625 70.207031 L 1209.058594 70.207031 L 1209.058594 29.886719 L 23.015625 29.886719 Z M 23.015625 70.207031 "/>
</g>
<g clip-path="url(#clip-1)">
<path fill-rule="nonzero" fill="rgb(9.019608%, 52.54902%, 0%)" fill-opacity="1" d="M 896.9375 58.449219 L 1209.054688 58.449219 L 1209.054688 41.648438 L 896.9375 41.648438 Z M 896.9375 58.449219 "/>
</g>
<path fill-rule="nonzero" fill="rgb(20.784314%, 44.705882%, 64.705882%)" fill-opacity="1" d="M 679.53125 58.449219 L 896.9375 58.449219 L 896.9375 41.648438 L 679.53125 41.648438 Z M 679.53125 58.449219 "/>
<path fill-rule="nonzero" fill="rgb(69.019608%, 44.705882%, 9.803922%)" fill-opacity="1" d="M 470.6875 58.449219 L 679.53125 58.449219 L 679.53125 41.648438 L 470.6875 41.648438 Z M 470.6875 58.449219 "/>
<path fill-rule="nonzero" fill="rgb(52.54902%, 49.019608%, 69.411765%)" fill-opacity="1" d="M 346.3125 58.449219 L 470.691406 58.449219 L 470.691406 41.648438 L 346.3125 41.648438 Z M 346.3125 58.449219 "/>
<path fill-rule="nonzero" fill="rgb(95.294118%, 29.411765%, 49.019608%)" fill-opacity="1" d="M 268.679688 58.449219 L 346.3125 58.449219 L 346.3125 41.648438 L 268.679688 41.648438 Z M 268.679688 58.449219 "/>
<path fill-rule="nonzero" fill="rgb(89.019608%, 54.901961%, 0%)" fill-opacity="1" d="M 225.046875 58.449219 L 268.679688 58.449219 L 268.679688 41.648438 L 225.046875 41.648438 Z M 225.046875 58.449219 "/>
<path fill-rule="nonzero" fill="rgb(89.019608%, 29.803922%, 14.901961%)" fill-opacity="1" d="M 182.933594 58.449219 L 225.046875 58.449219 L 225.046875 41.648438 L 182.933594 41.648438 Z M 182.933594 58.449219 "/>
<path fill-rule="nonzero" fill="rgb(43.921569%, 8.235294%, 8.627451%)" fill-opacity="1" d="M 150.242188 58.449219 L 182.9375 58.449219 L 182.9375 41.648438 L 150.242188 41.648438 Z M 150.242188 58.449219 "/>
<path fill-rule="nonzero" fill="rgb(21.568627%, 36.862745%, 67.058824%)" fill-opacity="1" d="M 120.027344 58.449219 L 150.242188 58.449219 L 150.242188 41.648438 L 120.027344 41.648438 Z M 120.027344 58.449219 "/>
<path fill-rule="nonzero" fill="rgb(0%, 0%, 50.196078%)" fill-opacity="1" d="M 92.308594 58.449219 L 120.027344 58.449219 L 120.027344 41.648438 L 92.308594 41.648438 Z M 92.308594 58.449219 "/>
<path fill-rule="nonzero" fill="rgb(33.333333%, 33.333333%, 33.333333%)" fill-opacity="1" d="M 64.738281 58.449219 L 92.308594 58.449219 L 92.308594 41.648438 L 64.738281 41.648438 Z M 64.738281 58.449219 "/>
<path fill-rule="nonzero" fill="rgb(53.72549%, 87.843137%, 31.764706%)" fill-opacity="1" d="M 44.386719 58.449219 L 64.738281 58.449219 L 64.738281 41.648438 L 44.386719 41.648438 Z M 44.386719 58.449219 "/>
<path fill-rule="nonzero" fill="rgb(0.784314%, 59.607843%, 76.470588%)" fill-opacity="1" d="M 35.496094 58.449219 L 44.386719 58.449219 L 44.386719 41.648438 L 35.496094 41.648438 Z M 35.496094 58.449219 "/>
<path fill-rule="nonzero" fill="rgb(9.803922%, 54.901961%, 90.588235%)" fill-opacity="1" d="M 29.21875 58.449219 L 35.496094 58.449219 L 35.496094 41.648438 L 29.21875 41.648438 Z M 29.21875 58.449219 "/>
<path fill-rule="nonzero" fill="rgb(17.254902%, 38.823529%, 32.54902%)" fill-opacity="1" d="M 26.242188 58.449219 L 29.21875 58.449219 L 29.21875 41.648438 L 26.242188 41.648438 Z M 26.242188 58.449219 "/>
<path fill-rule="nonzero" fill="rgb(85.490196%, 20.392157%, 20.392157%)" fill-opacity="1" d="M 24.390625 58.449219 L 26.242188 58.449219 L 26.242188 41.648438 L 24.390625 41.648438 Z M 24.390625 58.449219 "/>
<g clip-path="url(#clip-2)">
<path fill-rule="nonzero" fill="rgb(80%, 80%, 80%)" fill-opacity="1" d="M 23.359375 58.449219 L 24.390625 58.449219 L 24.390625 41.648438 L 23.359375 41.648438 Z M 23.359375 58.449219 "/>
</g>
<g clip-path="url(#clip-3)">
<path fill-rule="nonzero" fill="rgb(75.686275%, 94.509804%, 18.039216%)" fill-opacity="1" d="M 23.015625 58.449219 L 23.359375 58.449219 L 23.359375 41.648438 L 23.015625 41.648438 Z M 23.015625 58.449219 "/>
</g>
<path fill-rule="nonzero" fill="rgb(5.098039%, 6.666667%, 9.019608%)" fill-opacity="1" d="M 11.621094 154.148438 L 1220.449219 154.148438 L 1220.449219 110.621094 L 11.621094 110.621094 Z M 11.621094 154.148438 "/>
<path fill-rule="nonzero" fill="rgb(5.098039%, 6.666667%, 9.019608%)" fill-opacity="1" d="M 20.585938 127.902344 L 40.746094 127.902344 L 40.746094 110.621094 L 20.585938 110.621094 Z M 20.585938 127.902344 "/>
<path fill-rule="nonzero" fill="rgb(9.019608%, 52.54902%, 0%)" fill-opacity="1" d="M 21.746094 126.742188 L 39.585938 126.742188 L 39.585938 111.78125 L 21.746094 111.78125 Z M 21.746094 126.742188 "/>
<path fill-rule="nonzero" fill="rgb(5.098039%, 6.666667%, 9.019608%)" fill-opacity="1" d="M 133.679688 127.902344 L 153.839844 127.902344 L 153.839844 110.621094 L 133.679688 110.621094 Z M 133.679688 127.902344 "/>
<path fill-rule="nonzero" fill="rgb(20.784314%, 44.705882%, 64.705882%)" fill-opacity="1" d="M 134.839844 126.742188 L 152.679688 126.742188 L 152.679688 111.78125 L 134.839844 111.78125 Z M 134.839844 126.742188 "/>
<path fill-rule="nonzero" fill="rgb(5.098039%, 6.666667%, 9.019608%)" fill-opacity="1" d="M 273.773438 127.902344 L 293.933594 127.902344 L 293.933594 110.621094 L 273.773438 110.621094 Z M 273.773438 127.902344 "/>
<path fill-rule="nonzero" fill="rgb(69.019608%, 44.705882%, 9.803922%)" fill-opacity="1" d="M 274.933594 126.742188 L 292.773438 126.742188 L 292.773438 111.78125 L 274.933594 111.78125 Z M 274.933594 126.742188 "/>
<path fill-rule="nonzero" fill="rgb(5.098039%, 6.666667%, 9.019608%)" fill-opacity="1" d="M 398.867188 127.902344 L 419.027344 127.902344 L 419.027344 110.621094 L 398.867188 110.621094 Z M 398.867188 127.902344 "/>
<path fill-rule="nonzero" fill="rgb(52.54902%, 49.019608%, 69.411765%)" fill-opacity="1" d="M 400.027344 126.742188 L 417.867188 126.742188 L 417.867188 111.78125 L 400.027344 111.78125 Z M 400.027344 126.742188 "/>
<path fill-rule="nonzero" fill="rgb(5.098039%, 6.666667%, 9.019608%)" fill-opacity="1" d="M 522.957031 127.902344 L 543.117188 127.902344 L 543.117188 110.621094 L 522.957031 110.621094 Z M 522.957031 127.902344 "/>
<path fill-rule="nonzero" fill="rgb(95.294118%, 29.411765%, 49.019608%)" fill-opacity="1" d="M 524.117188 126.742188 L 541.957031 126.742188 L 541.957031 111.78125 L 524.117188 111.78125 Z M 524.117188 126.742188 "/>
<path fill-rule="nonzero" fill="rgb(5.098039%, 6.666667%, 9.019608%)" fill-opacity="1" d="M 638.050781 127.902344 L 658.210938 127.902344 L 658.210938 110.621094 L 638.050781 110.621094 Z M 638.050781 127.902344 "/>
<path fill-rule="nonzero" fill="rgb(89.019608%, 54.901961%, 0%)" fill-opacity="1" d="M 639.210938 126.742188 L 657.050781 126.742188 L 657.050781 111.78125 L 639.210938 111.78125 Z M 639.210938 126.742188 "/>
<path fill-rule="nonzero" fill="rgb(5.098039%, 6.666667%, 9.019608%)" fill-opacity="1" d="M 829.144531 127.902344 L 849.304688 127.902344 L 849.304688 110.621094 L 829.144531 110.621094 Z M 829.144531 127.902344 "/>
<path fill-rule="nonzero" fill="rgb(89.019608%, 29.803922%, 14.901961%)" fill-opacity="1" d="M 830.304688 126.742188 L 848.144531 126.742188 L 848.144531 111.78125 L 830.304688 111.78125 Z M 830.304688 126.742188 "/>
<path fill-rule="nonzero" fill="rgb(5.098039%, 6.666667%, 9.019608%)" fill-opacity="1" d="M 962.238281 127.902344 L 982.398438 127.902344 L 982.398438 110.621094 L 962.238281 110.621094 Z M 962.238281 127.902344 "/>
<path fill-rule="nonzero" fill="rgb(43.921569%, 8.235294%, 8.627451%)" fill-opacity="1" d="M 963.398438 126.742188 L 981.238281 126.742188 L 981.238281 111.78125 L 963.398438 111.78125 Z M 963.398438 126.742188 "/>
<path fill-rule="nonzero" fill="rgb(5.098039%, 6.666667%, 9.019608%)" fill-opacity="1" d="M 1096.328125 127.902344 L 1116.488281 127.902344 L 1116.488281 110.621094 L 1096.328125 110.621094 Z M 1096.328125 127.902344 "/>
<path fill-rule="nonzero" fill="rgb(21.568627%, 36.862745%, 67.058824%)" fill-opacity="1" d="M 1097.488281 126.742188 L 1115.328125 126.742188 L 1115.328125 111.78125 L 1097.488281 111.78125 Z M 1097.488281 126.742188 "/>
<path fill-rule="nonzero" fill="rgb(5.098039%, 6.666667%, 9.019608%)" fill-opacity="1" d="M 20.585938 154.148438 L 40.746094 154.148438 L 40.746094 136.867188 L 20.585938 136.867188 Z M 20.585938 154.148438 "/>
<path fill-rule="nonzero" fill="rgb(0%, 0%, 50.196078%)" fill-opacity="1" d="M 21.746094 152.988281 L 39.585938 152.988281 L 39.585938 138.027344 L 21.746094 138.027344 Z M 21.746094 152.988281 "/>
<path fill-rule="nonzero" fill="rgb(5.098039%, 6.666667%, 9.019608%)" fill-opacity="1" d="M 133.679688 154.148438 L 153.839844 154.148438 L 153.839844 136.867188 L 133.679688 136.867188 Z M 133.679688 154.148438 "/>
<path fill-rule="nonzero" fill="rgb(33.333333%, 33.333333%, 33.333333%)" fill-opacity="1" d="M 134.839844 152.988281 L 152.679688 152.988281 L 152.679688 138.027344 L 134.839844 138.027344 Z M 134.839844 152.988281 "/>
<path fill-rule="nonzero" fill="rgb(5.098039%, 6.666667%, 9.019608%)" fill-opacity="1" d="M 273.773438 154.148438 L 293.933594 154.148438 L 293.933594 136.867188 L 273.773438 136.867188 Z M 273.773438 154.148438 "/>
<path fill-rule="nonzero" fill="rgb(53.72549%, 87.843137%, 31.764706%)" fill-opacity="1" d="M 274.933594 152.988281 L 292.773438 152.988281 L 292.773438 138.027344 L 274.933594 138.027344 Z M 274.933594 152.988281 "/>
<path fill-rule="nonzero" fill="rgb(5.098039%, 6.666667%, 9.019608%)" fill-opacity="1" d="M 398.867188 154.148438 L 419.027344 154.148438 L 419.027344 136.867188 L 398.867188 136.867188 Z M 398.867188 154.148438 "/>
<path fill-rule="nonzero" fill="rgb(0.784314%, 59.607843%, 76.470588%)" fill-opacity="1" d="M 400.027344 152.988281 L 417.867188 152.988281 L 417.867188 138.027344 L 400.027344 138.027344 Z M 400.027344 152.988281 "/>
<path fill-rule="nonzero" fill="rgb(5.098039%, 6.666667%, 9.019608%)" fill-opacity="1" d="M 522.957031 154.148438 L 543.117188 154.148438 L 543.117188 136.867188 L 522.957031 136.867188 Z M 522.957031 154.148438 "/>
<path fill-rule="nonzero" fill="rgb(9.803922%, 54.901961%, 90.588235%)" fill-opacity="1" d="M 524.117188 152.988281 L 541.957031 152.988281 L 541.957031 138.027344 L 524.117188 138.027344 Z M 524.117188 152.988281 "/>
<path fill-rule="nonzero" fill="rgb(5.098039%, 6.666667%, 9.019608%)" fill-opacity="1" d="M 638.050781 154.148438 L 658.210938 154.148438 L 658.210938 136.867188 L 638.050781 136.867188 Z M 638.050781 154.148438 "/>
<path fill-rule="nonzero" fill="rgb(17.254902%, 38.823529%, 32.54902%)" fill-opacity="1" d="M 639.210938 152.988281 L 657.050781 152.988281 L 657.050781 138.027344 L 639.210938 138.027344 Z M 639.210938 152.988281 "/>
<path fill-rule="nonzero" fill="rgb(5.098039%, 6.666667%, 9.019608%)" fill-opacity="1" d="M 829.144531 154.148438 L 849.304688 154.148438 L 849.304688 136.867188 L 829.144531 136.867188 Z M 829.144531 154.148438 "/>
<path fill-rule="nonzero" fill="rgb(85.490196%, 20.392157%, 20.392157%)" fill-opacity="1" d="M 830.304688 152.988281 L 848.144531 152.988281 L 848.144531 138.027344 L 830.304688 138.027344 Z M 830.304688 152.988281 "/>
<path fill-rule="nonzero" fill="rgb(5.098039%, 6.666667%, 9.019608%)" fill-opacity="1" d="M 962.238281 154.148438 L 982.398438 154.148438 L 982.398438 136.867188 L 962.238281 136.867188 Z M 962.238281 154.148438 "/>
<path fill-rule="nonzero" fill="rgb(80%, 80%, 80%)" fill-opacity="1" d="M 963.398438 152.988281 L 981.238281 152.988281 L 981.238281 138.027344 L 963.398438 138.027344 Z M 963.398438 152.988281 "/>
<path fill-rule="nonzero" fill="rgb(5.098039%, 6.666667%, 9.019608%)" fill-opacity="1" d="M 1096.328125 154.148438 L 1116.488281 154.148438 L 1116.488281 136.867188 L 1096.328125 136.867188 Z M 1096.328125 154.148438 "/>
<path fill-rule="nonzero" fill="rgb(75.686275%, 94.509804%, 18.039216%)" fill-opacity="1" d="M 1097.488281 152.988281 L 1115.328125 152.988281 L 1115.328125 138.027344 L 1097.488281 138.027344 Z M 1097.488281 152.988281 "/>
<g fill="rgb(100%, 100%, 100%)" fill-opacity="1">
<use xlink:href="#glyph-0-0" x="49.714844" y="124.341797"/>
<use xlink:href="#glyph-0-1" x="60.714844" y="124.341797"/>
<use xlink:href="#glyph-0-2" x="68.714844" y="124.341797"/>
<use xlink:href="#glyph-0-3" x="72.714844" y="124.341797"/>
<use xlink:href="#glyph-0-4" x="77.714844" y="124.341797"/>
<use xlink:href="#glyph-0-5" x="85.714844" y="124.341797"/>
<use xlink:href="#glyph-0-6" x="93.714844" y="124.341797"/>
<use xlink:href="#glyph-0-7" x="97.714844" y="124.341797"/>
<use xlink:href="#glyph-0-8" x="105.714844" y="124.341797"/>
<use xlink:href="#glyph-0-9" x="119.714844" y="124.341797"/>
</g>
<g fill="rgb(100%, 100%, 100%)" fill-opacity="1">
<use xlink:href="#glyph-0-10" x="162.808594" y="124.341797"/>
<use xlink:href="#glyph-0-11" x="172.808594" y="124.341797"/>
<use xlink:href="#glyph-0-12" x="180.808594" y="124.341797"/>
<use xlink:href="#glyph-0-13" x="184.808594" y="124.341797"/>
<use xlink:href="#glyph-0-14" x="192.808594" y="124.341797"/>
<use xlink:href="#glyph-0-15" x="200.808594" y="124.341797"/>
<use xlink:href="#glyph-0-2" x="208.808594" y="124.341797"/>
<use xlink:href="#glyph-0-3" x="212.808594" y="124.341797"/>
<use xlink:href="#glyph-0-16" x="217.808594" y="124.341797"/>
<use xlink:href="#glyph-0-17" x="225.808594" y="124.341797"/>
<use xlink:href="#glyph-0-6" x="233.808594" y="124.341797"/>
<use xlink:href="#glyph-0-7" x="237.808594" y="124.341797"/>
<use xlink:href="#glyph-0-8" x="245.808594" y="124.341797"/>
<use xlink:href="#glyph-0-9" x="259.808594" y="124.341797"/>
</g>
<g fill="rgb(100%, 100%, 100%)" fill-opacity="1">
<use xlink:href="#glyph-0-18" x="302.898438" y="124.341797"/>
<use xlink:href="#glyph-0-19" x="310.898438" y="124.341797"/>
<use xlink:href="#glyph-0-20" x="318.898438" y="124.341797"/>
<use xlink:href="#glyph-0-19" x="325.898438" y="124.341797"/>
<use xlink:href="#glyph-0-2" x="333.898438" y="124.341797"/>
<use xlink:href="#glyph-0-3" x="337.898438" y="124.341797"/>
<use xlink:href="#glyph-0-16" x="342.898438" y="124.341797"/>
<use xlink:href="#glyph-0-21" x="350.898438" y="124.341797"/>
<use xlink:href="#glyph-0-6" x="358.898438" y="124.341797"/>
<use xlink:href="#glyph-0-5" x="362.898438" y="124.341797"/>
<use xlink:href="#glyph-0-8" x="370.898438" y="124.341797"/>
<use xlink:href="#glyph-0-9" x="384.898438" y="124.341797"/>
</g>
<g fill="rgb(100%, 100%, 100%)" fill-opacity="1">
<use xlink:href="#glyph-0-22" x="427.992188" y="124.341797"/>
<use xlink:href="#glyph-0-23" x="437.992188" y="124.341797"/>
<use xlink:href="#glyph-0-24" x="447.992188" y="124.341797"/>
<use xlink:href="#glyph-0-2" x="457.992188" y="124.341797"/>
<use xlink:href="#glyph-0-3" x="461.992188" y="124.341797"/>
<use xlink:href="#glyph-0-16" x="466.992188" y="124.341797"/>
<use xlink:href="#glyph-0-25" x="474.992188" y="124.341797"/>
<use xlink:href="#glyph-0-6" x="482.992188" y="124.341797"/>
<use xlink:href="#glyph-0-26" x="486.992188" y="124.341797"/>
<use xlink:href="#glyph-0-8" x="494.992188" y="124.341797"/>
<use xlink:href="#glyph-0-9" x="508.992188" y="124.341797"/>
</g>
<g fill="rgb(100%, 100%, 100%)" fill-opacity="1">
<use xlink:href="#glyph-0-0" x="552.085938" y="124.341797"/>
<use xlink:href="#glyph-0-27" x="563.085938" y="124.341797"/>
<use xlink:href="#glyph-0-27" x="572.085938" y="124.341797"/>
<use xlink:href="#glyph-0-2" x="581.085938" y="124.341797"/>
<use xlink:href="#glyph-0-3" x="585.085938" y="124.341797"/>
<use xlink:href="#glyph-0-5" x="590.085938" y="124.341797"/>
<use xlink:href="#glyph-0-6" x="598.085938" y="124.341797"/>
<use xlink:href="#glyph-0-26" x="602.085938" y="124.341797"/>
<use xlink:href="#glyph-0-8" x="610.085938" y="124.341797"/>
<use xlink:href="#glyph-0-9" x="624.085938" y="124.341797"/>
</g>
<g fill="rgb(100%, 100%, 100%)" fill-opacity="1">
<use xlink:href="#glyph-0-28" x="667.175781" y="124.341797"/>
<use xlink:href="#glyph-0-29" x="677.175781" y="124.341797"/>
<use xlink:href="#glyph-0-30" x="689.175781" y="124.341797"/>
<use xlink:href="#glyph-0-2" x="697.175781" y="124.341797"/>
<use xlink:href="#glyph-0-3" x="701.175781" y="124.341797"/>
<use xlink:href="#glyph-0-7" x="706.175781" y="124.341797"/>
<use xlink:href="#glyph-0-6" x="714.175781" y="124.341797"/>
<use xlink:href="#glyph-0-21" x="718.175781" y="124.341797"/>
<use xlink:href="#glyph-0-8" x="726.175781" y="124.341797"/>
<use xlink:href="#glyph-0-9" x="740.175781" y="124.341797"/>
</g>
<g fill="rgb(100%, 100%, 100%)" fill-opacity="1">
<use xlink:href="#glyph-0-31" x="858.269531" y="124.341797"/>
<use xlink:href="#glyph-0-32" x="869.269531" y="124.341797"/>
<use xlink:href="#glyph-0-33" x="878.269531" y="124.341797"/>
<use xlink:href="#glyph-0-30" x="891.269531" y="124.341797"/>
<use xlink:href="#glyph-0-2" x="899.269531" y="124.341797"/>
<use xlink:href="#glyph-0-3" x="903.269531" y="124.341797"/>
<use xlink:href="#glyph-0-7" x="908.269531" y="124.341797"/>
<use xlink:href="#glyph-0-6" x="916.269531" y="124.341797"/>
<use xlink:href="#glyph-0-5" x="920.269531" y="124.341797"/>
<use xlink:href="#glyph-0-8" x="928.269531" y="124.341797"/>
<use xlink:href="#glyph-0-9" x="942.269531" y="124.341797"/>
</g>
<g fill="rgb(100%, 100%, 100%)" fill-opacity="1">
<use xlink:href="#glyph-0-34" x="991.363281" y="124.341797"/>
<use xlink:href="#glyph-0-35" x="1002.363281" y="124.341797"/>
<use xlink:href="#glyph-0-36" x="1010.363281" y="124.341797"/>
<use xlink:href="#glyph-0-11" x="1018.363281" y="124.341797"/>
<use xlink:href="#glyph-0-2" x="1026.363281" y="124.341797"/>
<use xlink:href="#glyph-0-3" x="1030.363281" y="124.341797"/>
<use xlink:href="#glyph-0-4" x="1035.363281" y="124.341797"/>
<use xlink:href="#glyph-0-6" x="1043.363281" y="124.341797"/>
<use xlink:href="#glyph-0-17" x="1047.363281" y="124.341797"/>
<use xlink:href="#glyph-0-8" x="1055.363281" y="124.341797"/>
<use xlink:href="#glyph-0-9" x="1069.363281" y="124.341797"/>
</g>
<g fill="rgb(100%, 100%, 100%)" fill-opacity="1">
<use xlink:href="#glyph-0-37" x="1125.457031" y="124.341797"/>
<use xlink:href="#glyph-0-14" x="1137.457031" y="124.341797"/>
<use xlink:href="#glyph-0-2" x="1145.457031" y="124.341797"/>
<use xlink:href="#glyph-0-3" x="1149.457031" y="124.341797"/>
<use xlink:href="#glyph-0-4" x="1154.457031" y="124.341797"/>
<use xlink:href="#glyph-0-6" x="1162.457031" y="124.341797"/>
<use xlink:href="#glyph-0-26" x="1166.457031" y="124.341797"/>
<use xlink:href="#glyph-0-8" x="1174.457031" y="124.341797"/>
<use xlink:href="#glyph-0-9" x="1188.457031" y="124.341797"/>
</g>
<g fill="rgb(100%, 100%, 100%)" fill-opacity="1">
<use xlink:href="#glyph-0-30" x="49.714844" y="150.587891"/>
<use xlink:href="#glyph-0-35" x="57.714844" y="150.587891"/>
<use xlink:href="#glyph-0-19" x="65.714844" y="150.587891"/>
<use xlink:href="#glyph-0-2" x="73.714844" y="150.587891"/>
<use xlink:href="#glyph-0-3" x="77.714844" y="150.587891"/>
<use xlink:href="#glyph-0-4" x="82.714844" y="150.587891"/>
<use xlink:href="#glyph-0-6" x="90.714844" y="150.587891"/>
<use xlink:href="#glyph-0-7" x="94.714844" y="150.587891"/>
<use xlink:href="#glyph-0-8" x="102.714844" y="150.587891"/>
<use xlink:href="#glyph-0-9" x="116.714844" y="150.587891"/>
</g>
<g fill="rgb(100%, 100%, 100%)" fill-opacity="1">
<use xlink:href="#glyph-0-0" x="162.808594" y="150.587891"/>
<use xlink:href="#glyph-0-2" x="173.808594" y="150.587891"/>
<use xlink:href="#glyph-0-3" x="177.808594" y="150.587891"/>
<use xlink:href="#glyph-0-4" x="182.808594" y="150.587891"/>
<use xlink:href="#glyph-0-6" x="190.808594" y="150.587891"/>
<use xlink:href="#glyph-0-7" x="194.808594" y="150.587891"/>
<use xlink:href="#glyph-0-8" x="202.808594" y="150.587891"/>
<use xlink:href="#glyph-0-9" x="216.808594" y="150.587891"/>
</g>
<g fill="rgb(100%, 100%, 100%)" fill-opacity="1">
<use xlink:href="#glyph-0-28" x="302.898438" y="150.587891"/>
<use xlink:href="#glyph-0-13" x="312.898438" y="150.587891"/>
<use xlink:href="#glyph-0-38" x="320.898438" y="150.587891"/>
<use xlink:href="#glyph-0-39" x="328.898438" y="150.587891"/>
<use xlink:href="#glyph-0-39" x="331.898438" y="150.587891"/>
<use xlink:href="#glyph-0-2" x="334.898438" y="150.587891"/>
<use xlink:href="#glyph-0-3" x="338.898438" y="150.587891"/>
<use xlink:href="#glyph-0-16" x="343.898438" y="150.587891"/>
<use xlink:href="#glyph-0-6" x="351.898438" y="150.587891"/>
<use xlink:href="#glyph-0-21" x="355.898438" y="150.587891"/>
<use xlink:href="#glyph-0-8" x="363.898438" y="150.587891"/>
<use xlink:href="#glyph-0-9" x="377.898438" y="150.587891"/>
</g>
<g fill="rgb(100%, 100%, 100%)" fill-opacity="1">
<use xlink:href="#glyph-0-10" x="427.992188" y="150.587891"/>
<use xlink:href="#glyph-0-38" x="437.992188" y="150.587891"/>
<use xlink:href="#glyph-0-40" x="445.992188" y="150.587891"/>
<use xlink:href="#glyph-0-39" x="450.992188" y="150.587891"/>
<use xlink:href="#glyph-0-2" x="453.992188" y="150.587891"/>
<use xlink:href="#glyph-0-3" x="457.992188" y="150.587891"/>
<use xlink:href="#glyph-0-25" x="462.992188" y="150.587891"/>
<use xlink:href="#glyph-0-6" x="470.992188" y="150.587891"/>
<use xlink:href="#glyph-0-21" x="474.992188" y="150.587891"/>
<use xlink:href="#glyph-0-8" x="482.992188" y="150.587891"/>
<use xlink:href="#glyph-0-9" x="496.992188" y="150.587891"/>
</g>
<g fill="rgb(100%, 100%, 100%)" fill-opacity="1">
<use xlink:href="#glyph-0-34" x="552.085938" y="150.587891"/>
<use xlink:href="#glyph-0-2" x="563.085938" y="150.587891"/>
<use xlink:href="#glyph-0-3" x="567.085938" y="150.587891"/>
<use xlink:href="#glyph-0-25" x="572.085938" y="150.587891"/>
<use xlink:href="#glyph-0-6" x="580.085938" y="150.587891"/>
<use xlink:href="#glyph-0-26" x="584.085938" y="150.587891"/>
<use xlink:href="#glyph-0-8" x="592.085938" y="150.587891"/>
<use xlink:href="#glyph-0-9" x="606.085938" y="150.587891"/>
</g>
<g fill="rgb(100%, 100%, 100%)" fill-opacity="1">
<use xlink:href="#glyph-0-22" x="667.175781" y="150.587891"/>
<use xlink:href="#glyph-0-41" x="677.175781" y="150.587891"/>
<use xlink:href="#glyph-0-42" x="680.175781" y="150.587891"/>
<use xlink:href="#glyph-0-35" x="688.175781" y="150.587891"/>
<use xlink:href="#glyph-0-19" x="696.175781" y="150.587891"/>
<use xlink:href="#glyph-0-39" x="704.175781" y="150.587891"/>
<use xlink:href="#glyph-0-2" x="707.175781" y="150.587891"/>
<use xlink:href="#glyph-0-23" x="711.175781" y="150.587891"/>
<use xlink:href="#glyph-0-19" x="721.175781" y="150.587891"/>
<use xlink:href="#glyph-0-42" x="729.175781" y="150.587891"/>
<use xlink:href="#glyph-0-41" x="737.175781" y="150.587891"/>
<use xlink:href="#glyph-0-43" x="740.175781" y="150.587891"/>
<use xlink:href="#glyph-0-2" x="748.175781" y="150.587891"/>
<use xlink:href="#glyph-0-5" x="752.175781" y="150.587891"/>
<use xlink:href="#glyph-0-6" x="760.175781" y="150.587891"/>
<use xlink:href="#glyph-0-25" x="764.175781" y="150.587891"/>
<use xlink:href="#glyph-0-2" x="772.175781" y="150.587891"/>
<use xlink:href="#glyph-0-3" x="776.175781" y="150.587891"/>
<use xlink:href="#glyph-0-25" x="781.175781" y="150.587891"/>
<use xlink:href="#glyph-0-6" x="789.175781" y="150.587891"/>
<use xlink:href="#glyph-0-7" x="793.175781" y="150.587891"/>
<use xlink:href="#glyph-0-8" x="801.175781" y="150.587891"/>
<use xlink:href="#glyph-0-9" x="815.175781" y="150.587891"/>
</g>
<g fill="rgb(100%, 100%, 100%)" fill-opacity="1">
<use xlink:href="#glyph-0-0" x="858.269531" y="150.587891"/>
<use xlink:href="#glyph-0-33" x="869.269531" y="150.587891"/>
<use xlink:href="#glyph-0-19" x="882.269531" y="150.587891"/>
<use xlink:href="#glyph-0-44" x="890.269531" y="150.587891"/>
<use xlink:href="#glyph-0-38" x="897.269531" y="150.587891"/>
<use xlink:href="#glyph-0-2" x="905.269531" y="150.587891"/>
<use xlink:href="#glyph-0-3" x="909.269531" y="150.587891"/>
<use xlink:href="#glyph-0-25" x="914.269531" y="150.587891"/>
<use xlink:href="#glyph-0-6" x="922.269531" y="150.587891"/>
<use xlink:href="#glyph-0-4" x="926.269531" y="150.587891"/>
<use xlink:href="#glyph-0-8" x="934.269531" y="150.587891"/>
<use xlink:href="#glyph-0-9" x="948.269531" y="150.587891"/>
</g>
<g fill="rgb(100%, 100%, 100%)" fill-opacity="1">
<use xlink:href="#glyph-0-29" x="991.363281" y="150.587891"/>
<use xlink:href="#glyph-0-33" x="1003.363281" y="150.587891"/>
<use xlink:href="#glyph-0-19" x="1016.363281" y="150.587891"/>
<use xlink:href="#glyph-0-44" x="1024.363281" y="150.587891"/>
<use xlink:href="#glyph-0-38" x="1031.363281" y="150.587891"/>
<use xlink:href="#glyph-0-2" x="1039.363281" y="150.587891"/>
<use xlink:href="#glyph-0-3" x="1043.363281" y="150.587891"/>
<use xlink:href="#glyph-0-25" x="1048.363281" y="150.587891"/>
<use xlink:href="#glyph-0-6" x="1056.363281" y="150.587891"/>
<use xlink:href="#glyph-0-16" x="1060.363281" y="150.587891"/>
<use xlink:href="#glyph-0-8" x="1068.363281" y="150.587891"/>
<use xlink:href="#glyph-0-9" x="1082.363281" y="150.587891"/>
</g>
<g fill="rgb(100%, 100%, 100%)" fill-opacity="1">
<use xlink:href="#glyph-0-23" x="1125.457031" y="150.587891"/>
<use xlink:href="#glyph-0-19" x="1135.457031" y="150.587891"/>
<use xlink:href="#glyph-0-12" x="1143.457031" y="150.587891"/>
<use xlink:href="#glyph-0-43" x="1147.457031" y="150.587891"/>
<use xlink:href="#glyph-0-13" x="1155.457031" y="150.587891"/>
<use xlink:href="#glyph-0-45" x="1163.457031" y="150.587891"/>
<use xlink:href="#glyph-0-39" x="1171.457031" y="150.587891"/>
<use xlink:href="#glyph-0-38" x="1174.457031" y="150.587891"/>
<use xlink:href="#glyph-0-2" x="1182.457031" y="150.587891"/>
<use xlink:href="#glyph-0-3" x="1186.457031" y="150.587891"/>
<use xlink:href="#glyph-0-25" x="1191.457031" y="150.587891"/>
<use xlink:href="#glyph-0-8" x="1199.457031" y="150.587891"/>
<use xlink:href="#glyph-0-9" x="1213.457031" y="150.587891"/>
</g>
</svg>
